<?xml version="1.0" encoding="utf-8"?><svg xmlns="http://www.w3.org/2000/svg" width="110" height="70" preserveAspectRatio="xMidYMid" xmlns:xlink="http://www.w3.org/1999/xlink" style="margin-right:-2px;display:block;background-repeat-y:initial;background-repeat-x:initial;animation-play-state:paused" ><style type="text/css" style="animation-play-state:paused" >text {
    text-anchor: middle; font-size: 39px; opacity: 0;
  }</style>


<g style="transform-origin:55px 35px;transform:matrix(0.78, 0, 0, 0.78, 0, 0);animation-play-state:paused" ><g transform="translate(55,35)" style="transform:matrix(1, 0, 0, 1, 55, 35);animation-play-state:paused" ><g transform="translate(0,0)" style="transform:matrix(1, 0, 0, 1, 0, 0);animation-play-state:paused" ><g class="path" style="transform-origin:-45.15px -2.99786px;animation-timing-function:linear;animation-play-state:paused;animation-name:static-48b8e3d3-f9d4-451f-92f0-f184e31bda4a;animation-iteration-count:infinite;animation-fill-mode:forwards;animation-duration:1s;animation-delay:-0.565714s" ><path d="M30.25-31.35L30.25-31.35L23.20-31.65L23.20-31.65Q22.70-31.65 19.90-25.68L19.90-25.68L19.90-25.68Q17.10-19.70 15.05-14.10L15.05-14.10L15.05-14.10Q13-8.50 13-6.03L13-6.03L13-6.03Q13-3.55 14.58-3.55L14.58-3.55L14.58-3.55Q16.15-3.55 18.55-6.80L18.55-6.80L18.55-6.80Q18.80-7.10 19.05-7.10L19.05-7.10L19.05-7.10Q19.30-7.10 19.30-6.65L19.30-6.65L19.30-6.65Q19.30-6.20 18.63-5L18.63-5L18.63-5Q17.95-3.80 16.85-2.43L16.85-2.43L16.85-2.43Q15.75-1.05 14 0.03L14 0.03L14 0.03Q12.25 1.10 10.40 1.10L10.40 1.10L10.40 1.10Q7.65 1.10 7.65-2.70L7.65-2.70L7.65-2.70Q7.65-7.40 12.40-18.70L12.40-18.70L12.40-18.70Q15.80-26.65 18.65-31.90L18.65-31.90L18-31.90L12.85-32L12.85-32Q8.55-32 5.35-30.90L5.35-30.90L5.35-30.90Q3.60-30.30 2.58-29.13L2.58-29.13L2.58-29.13Q1.55-27.95 1.55-26.30L1.55-26.30L1.95-24.20L1.95-24.20Q1.95-23.70 1.45-23.70L1.45-23.70L1.45-23.70Q0.80-23.70 0.40-24.98L0.40-24.98L0.40-24.98Q0-26.25 0-27.20L0-27.20L0-27.20Q0-29.55 1.10-31.20L1.10-31.20L1.10-31.20Q2.20-32.85 4.10-33.70L4.10-33.70L4.10-33.70Q7.70-35.30 12.05-35.30L12.05-35.30L12.05-35.30Q16.40-35.30 21.90-34.77L21.90-34.77L21.90-34.77Q27.40-34.25 31.90-34.25L31.90-34.25L31.90-34.25Q36.40-34.25 37.75-35.65L37.75-35.65L37.75-35.65Q37.90-35.30 37.90-34.95L37.90-34.95L37.90-34.95Q37.90-33.30 35.80-32.33L35.80-32.33L35.80-32.33Q33.70-31.35 30.25-31.35" fill="#ffffff" stroke="none" stroke-width="none" transform="translate(-64.10000610351562,14.277141200474325)" style="transform:matrix(1, 0, 0, 1, -64.1, 14.2771);fill:rgb(255, 255, 255);animation-play-state:paused" ></path></g>
<g class="path" style="transform-origin:-34.275px 3.42714px;animation-timing-function:linear;animation-play-state:paused;animation-name:static-48b8e3d3-f9d4-451f-92f0-f184e31bda4a;animation-iteration-count:infinite;animation-fill-mode:forwards;animation-duration:1s;animation-delay:-0.471429s" ><path d="M33.20-20.10L33.20-20.10L35.75-20.05L36.25-20.05L36.25-20.05Q35.50-19.50 34.13-16.80L34.13-16.80L34.13-16.80Q32.75-14.10 32.08-12.73L32.08-12.73L32.08-12.73Q31.40-11.35 30.58-9.03L30.58-9.03L30.58-9.03Q29.75-6.70 29.75-5.25L29.75-5.25L29.75-5.25Q29.75-3.80 30.75-3.80L30.75-3.80L30.75-3.80Q31.40-3.85 32.58-4.73L32.58-4.73L32.58-4.73Q33.75-5.60 34.53-6.58L34.53-6.58L34.53-6.58Q35.30-7.55 36.23-9.08L36.23-9.08L36.23-9.08Q37.15-10.60 37.83-11.73L37.83-11.73L37.83-11.73Q38.50-12.85 38.60-12.85L38.60-12.85L38.60-12.85Q38.95-12.85 38.95-11.93L38.95-11.93L38.95-11.93Q38.95-11 38.45-10.15L38.45-10.15L38.45-10.15Q36.30-6.60 34.90-4.70L34.90-4.70L34.90-4.70Q33.50-2.80 31.52-1.23L31.52-1.23L31.52-1.23Q29.55 0.35 27.95 0.35L27.95 0.35L27.95 0.35Q25.10 0.35 25.10-3.85L25.10-3.85L25.10-3.85Q25.10-6.70 26.20-10.30L26.20-10.30L26.20-10.30Q27.30-13.90 29.45-17.25L29.45-17.25L29.45-17.25Q27.70-15.85 25.95-15.85L25.95-15.85L25.95-15.85Q25.40-15.85 24.80-16.10L24.80-16.10L24.80-16.10Q21.25-9.10 20.98-9.10L20.98-9.10L20.98-9.10Q20.70-9.10 20.70-9.93L20.70-9.93L20.70-9.93Q20.70-10.75 21.32-12.23L21.32-12.23L21.32-12.23Q21.95-13.70 22.68-15.05L22.68-15.05L22.68-15.05Q23.40-16.40 23.45-16.55L23.45-16.55L23.45-16.55Q21.65-17.45 21.65-19.45L21.65-19.45L21.65-19.45Q21.65-20.45 22.27-21.25L22.27-21.25L22.27-21.25Q22.90-22.05 24-22.05L24-22.05L24-22.05Q25.10-22.05 25.80-21.35L25.80-21.35L25.80-21.35Q25.70-21.05 25.70-20.45L25.70-20.45L25.70-20.45Q25.70-19.10 26.68-18.32L26.68-18.32L26.68-18.32Q27.65-17.55 29.05-17.55L29.05-17.55L29.05-17.55Q29.45-17.55 29.65-17.60L29.65-17.60L29.65-17.60Q31.40-20.10 33.20-20.10" fill="#ffffff" stroke="none" stroke-width="none" transform="translate(-64.10000610351562,14.277141200474325)" style="transform:matrix(1, 0, 0, 1, -64.1, 14.2771);fill:rgb(255, 255, 255);animation-play-state:paused" ></path></g>
<g class="path" style="transform-origin:-14.725px 4.32714px;animation-timing-function:linear;animation-play-state:paused;animation-name:static-48b8e3d3-f9d4-451f-92f0-f184e31bda4a;animation-iteration-count:infinite;animation-fill-mode:forwards;animation-duration:1s;animation-delay:-0.377143s" ><path d="M57.05-20L57.05-20L59.55-19.95L60.05-19.95L60.05-19.95Q58.40-18.60 56-13.13L56-13.13L56-13.13Q53.60-7.65 53.60-5.15L53.60-5.15L53.60-5.15Q53.60-3.85 54.50-3.85L54.50-3.85L54.50-3.85Q57.40-3.85 61.90-12.40L61.90-12.40L61.90-12.40Q62.10-12.75 62.25-12.75L62.25-12.75L62.25-12.75Q62.55-12.75 62.55-11.83L62.55-11.83L62.55-11.83Q62.55-10.90 62.05-10.05L62.05-10.05L62.05-10.05Q55.90 0.30 51.75 0.30L51.75 0.30L51.75 0.30Q49.05 0.30 49.05-3.85L49.05-3.85L49.05-3.85Q49.05-6.95 50.10-9.95L50.10-9.95L50.10-9.95Q44.40 0.15 39.55 0.15L39.55 0.15L39.55 0.15Q36.20 0.15 36.20-4.45L36.20-4.45L36.20-4.45Q36.20-7.95 37.72-11.55L37.72-11.55L37.72-11.55Q39.25-15.15 42.10-17.68L42.10-17.68L42.10-17.68Q44.95-20.20 48.35-20.20L48.35-20.20L48.35-20.20Q49.95-20.20 51.35-19.48L51.35-19.48L51.35-19.48Q52.75-18.75 53.20-17.15L53.20-17.15L53.20-17.15Q53.75-18.30 54.90-19.15L54.90-19.15L54.90-19.15Q56.05-20 57.05-20zM52.90-16.70L52.90-16.70L52.90-16.70Q52.40-18.30 50.55-18.30L50.55-18.30L50.55-18.30Q47.25-18.30 44.15-13.73L44.15-13.73L44.15-13.73Q41.05-9.15 41.05-5.55L41.05-5.55L41.05-5.55Q41.05-4 42.25-4L42.25-4L42.25-4Q43.55-4 45.30-5.63L45.30-5.63L45.30-5.63Q47.05-7.25 48.45-9.45L48.45-9.45L48.45-9.45Q51.55-14.35 52.90-16.70" fill="#ffffff" stroke="none" stroke-width="none" transform="translate(-64.10000610351562,14.277141200474325)" style="transform:matrix(1, 0, 0, 1, -64.1, 14.2771);fill:rgb(255, 255, 255);animation-play-state:paused" ></path></g>
<g class="path" style="transform-origin:6.19999px 4.57714px;animation-timing-function:linear;animation-play-state:paused;animation-name:static-48b8e3d3-f9d4-451f-92f0-f184e31bda4a;animation-iteration-count:infinite;animation-fill-mode:forwards;animation-duration:1s;animation-delay:-0.282857s" ><path d="M80.15-12.80L80.15-12.80L80.15-12.80Q80.45-12.80 80.45-11.85L80.45-11.85L80.45-11.85Q80.45-10.90 79.63-9.50L79.63-9.50L79.63-9.50Q78.80-8.10 78.33-7.38L78.33-7.38L78.33-7.38Q77.85-6.65 76.70-5.05L76.70-5.05L76.70-5.05Q75.55-3.45 74.70-2.75L74.70-2.75L74.70-2.75Q73.85-2.05 72.55-1.10L72.55-1.10L72.55-1.10Q70.35 0.50 66.83 0.50L66.83 0.50L66.83 0.50Q63.30 0.50 61.73-1.28L61.73-1.28L61.73-1.28Q60.15-3.05 60.15-5.90L60.15-5.90L60.15-5.90Q60.15-11.15 63.88-15.53L63.88-15.53L63.88-15.53Q67.60-19.90 72.65-19.90L72.65-19.90L72.65-19.90Q74.90-19.90 76.25-18.73L76.25-18.73L76.25-18.73Q77.60-17.55 77.60-15.93L77.60-15.93L77.60-15.93Q77.60-14.30 76.70-13.10L76.70-13.10L76.70-13.10Q75.80-11.90 74.65-11.90L74.65-11.90L74.65-11.90Q72.40-11.90 72.40-13.75L72.40-13.75L72.40-13.75Q72.40-14.35 73.65-14.90L73.65-14.90L73.65-14.90Q74.15-15.10 74.55-15.65L74.55-15.65L74.55-15.65Q74.95-16.20 74.95-17.10L74.95-17.10L74.95-17.10Q74.95-18.40 73.55-18.40L73.55-18.40L73.55-18.40Q70.55-18.40 67.60-14.05L67.60-14.05L67.60-14.05Q64.65-9.70 64.65-5.63L64.65-5.63L64.65-5.63Q64.65-1.55 68.20-1.55L68.20-1.55L68.20-1.55Q73.15-1.55 77.85-9.20L77.85-9.20L77.85-9.20Q78.80-10.70 79.43-11.75L79.43-11.75L79.43-11.75Q80.05-12.80 80.15-12.80" fill="#ffffff" stroke="none" stroke-width="none" transform="translate(-64.10000610351562,14.277141200474325)" style="transform:matrix(1, 0, 0, 1, -64.1, 14.2771);fill:rgb(255, 255, 255);animation-play-state:paused" ></path></g>
<g class="path" style="transform-origin:23.85px -4.09786px;animation-timing-function:linear;animation-play-state:paused;animation-name:static-48b8e3d3-f9d4-451f-92f0-f184e31bda4a;animation-iteration-count:infinite;animation-fill-mode:forwards;animation-duration:1s;animation-delay:-0.188571s" ><path d="M100.45-9.95L100.45-9.95L100.45-9.95Q98.70-7 96.90-4.60L96.90-4.60L96.90-4.60Q93.05 0.40 89.30 0.40L89.30 0.40L89.30 0.40Q87.25 0.40 86.23-1.65L86.23-1.65L86.23-1.65Q85.20-3.70 85.20-6.20L85.20-6.20L85.20-6.20Q85.20-11.20 86.70-11.20L86.70-11.20L86.70-11.20Q89.05-11.20 91.05-12.28L91.05-12.28L91.05-12.28Q93.05-13.35 93.05-15.10L93.05-15.10L93.05-15.10Q93.05-16.50 91.45-16.50L91.45-16.50L91.45-16.50Q88.00-16.50 83.80-9L83.80-9L83.80-9Q83.40-8.25 82.13-5.53L82.13-5.53L82.13-5.53Q80.85-2.80 79.88-1.40L79.88-1.40L79.88-1.40Q78.90 0 77.95 0L77.95 0L74.90 0L74.90 0Q76.45-2.90 79.48-11.73L79.48-11.73L79.48-11.73Q82.50-20.55 83.95-23.55L83.95-23.55L83.95-23.55Q84.00-23.65 84.58-24.85L84.58-24.85L84.58-24.85Q85.15-26.05 85.38-26.50L85.38-26.50L85.38-26.50Q85.60-26.95 86.25-28.20L86.25-28.20L86.25-28.20Q86.90-29.45 87.30-30.05L87.30-30.05L87.30-30.05Q87.70-30.65 88.40-31.78L88.40-31.78L88.40-31.78Q89.10-32.90 89.65-33.50L89.65-33.50L89.65-33.50Q90.20-34.10 90.95-34.93L90.95-34.93L90.95-34.93Q91.70-35.75 92.35-36.15L92.35-36.15L92.35-36.15Q94.05-37.15 95.45-37.15L95.45-37.15L95.45-37.15Q98.20-37.15 98.20-34.65L98.20-34.65L98.20-34.65Q98.20-31.15 93.98-25.38L93.98-25.38L93.98-25.38Q89.75-19.60 84.45-14.45L84.45-14.45L83.55-11.95L83.55-11.95Q85.95-15.05 89.00-17.38L89.00-17.38L89.00-17.38Q92.05-19.70 94.60-19.70L94.60-19.70L94.60-19.70Q96.05-19.70 96.88-19L96.88-19L96.88-19Q97.70-18.30 97.70-17.10L97.70-17.10L97.70-17.10Q97.70-14.35 95.28-12.68L95.28-12.68L95.28-12.68Q92.85-11 89.70-10.50L89.70-10.50L89.70-10.50Q90.15-5.30 91.15-4.15L91.15-4.15L91.15-4.15Q91.65-3.60 92.40-3.60L92.40-3.60L92.40-3.60Q93.15-3.60 94.45-4.50L94.45-4.50L94.45-4.50Q95.75-5.40 96.58-6.48L96.58-6.48L96.58-6.48Q97.40-7.55 98.33-9.05L98.33-9.05L98.33-9.05Q99.25-10.55 99.93-11.65L99.93-11.65L99.93-11.65Q100.60-12.75 100.70-12.75L100.70-12.75L100.70-12.75Q101.00-12.75 101.00-11.78L101.00-11.78L101.00-11.78Q101.00-10.80 100.45-9.95zM95.55-35.85L95.55-35.85L95.55-35.85Q92.75-35.85 85.75-17.85L85.75-17.85L85.75-17.85Q92.15-25.35 94.75-30.50L94.75-30.50L94.75-30.50Q96.25-33.20 96.25-34.95L96.25-34.95L96.25-34.95Q96.25-35.85 95.55-35.85" fill="#ffffff" stroke="none" stroke-width="none" transform="translate(-64.10000610351562,14.277141200474325)" style="transform:matrix(1, 0, 0, 1, -64.1, 14.2771);fill:rgb(255, 255, 255);animation-play-state:paused" ></path></g>
<g class="path" style="transform-origin:44.975px -3.17286px;animation-timing-function:linear;animation-play-state:paused;animation-name:static-48b8e3d3-f9d4-451f-92f0-f184e31bda4a;animation-iteration-count:infinite;animation-fill-mode:forwards;animation-duration:1s;animation-delay:-0.0942857s" ><path d="M108.75-34.90L108.75-34.90L120.05-34.90L120.05-34.90Q116.60-32.25 110.55-18.50L110.55-18.50L110.55-18.50Q109-15 107.03-9.33L107.03-9.33L107.03-9.33Q105.05-3.65 105.05-1.05L105.05-1.05L105.05-1.05Q105.05-0.35 105.25 0L105.25 0L98.80 0L98.80 0Q100.20-6.05 104.70-16.80L104.70-16.80L104.70-16.80Q110.70-31.10 112.45-33.05L112.45-33.05L112.45-33.05Q108.20-32.95 103.83-31.33L103.83-31.33L103.83-31.33Q99.45-29.70 98.75-27.45L98.75-27.45L98.75-27.45Q98.70-27.30 98.55-27.30L98.55-27.30L98.55-27.30Q98.10-27.30 98.10-27.95L98.10-27.95L98.10-27.95Q98.10-28.05 98.20-28.45L98.20-28.45L98.20-28.45Q99.15-31.20 100.95-32.70L100.95-32.70L100.95-32.70Q102.75-34.20 104.48-34.55L104.48-34.55L104.48-34.55Q106.20-34.90 108.75-34.90" fill="#ffffff" stroke="none" stroke-width="none" transform="translate(-64.10000610351562,14.277141200474325)" style="transform:matrix(1, 0, 0, 1, -64.1, 14.2771);fill:rgb(255, 255, 255);animation-play-state:paused" ></path></g>
<g class="path" style="transform-origin:56.4px 0.102141px;animation-timing-function:linear;animation-play-state:paused;animation-name:static-48b8e3d3-f9d4-451f-92f0-f184e31bda4a;animation-iteration-count:infinite;animation-fill-mode:forwards;animation-duration:1s" ><path d="M128.20-28.65L128.20-28.65L128.20-28.65Q125.75-26.95 122.70-19.95L122.70-19.95L127.75-19.95L127.80-19.90L127.80-19.90Q127.80-19.65 127.25-19.03L127.25-19.03L127.25-19.03Q126.70-18.40 126.30-18.40L126.30-18.40L122-18.40L122-18.40Q118.05-8.60 118.05-5.80L118.05-5.80L118.05-5.80Q118.05-3.90 119.25-3.90L119.25-3.90L119.25-3.90Q121-3.90 123.35-6.90L123.35-6.90L123.35-6.90Q123.90-7.55 124.80-9.10L124.80-9.10L124.80-9.10Q127.10-12.80 127.20-12.80L127.20-12.80L127.20-12.80Q127.50-12.80 127.50-12L127.50-12L127.50-12Q127.45-10.10 123.35-4.60L123.35-4.60L123.35-4.60Q122-2.80 120.10-1.25L120.10-1.25L120.10-1.25Q118.20 0.30 116.65 0.30L116.65 0.30L116.65 0.30Q113.80 0.30 113.80-3.70L113.80-3.70L113.80-3.70Q113.80-7.05 115.40-11.40L115.40-11.40L115.40-11.45L115.40-11.45Q114.45-9.70 113.78-8.85L113.78-8.85L113.78-8.85Q113.10-8 113-8L113-8L113-8Q112.80-8 112.80-8.63L112.80-8.63L112.80-8.63Q112.80-9.25 113.48-10.65L113.48-10.65L113.48-10.65Q114.15-12.05 115.33-14.30L115.33-14.30L115.33-14.30Q116.50-16.55 117.25-18.40L117.25-18.40L113.90-18.40L113.90-18.40Q113.75-18.40 113.75-18.63L113.75-18.63L113.75-18.63Q113.75-18.85 114.13-19.40L114.13-19.40L114.13-19.40Q114.50-19.95 114.70-19.95L114.70-19.95L118.50-19.95L118.50-19.95Q122.10-28.60 125.80-28.60L125.80-28.60L125.80-28.60Q127.95-28.60 128.20-28.65" fill="#ffffff" stroke="none" stroke-width="none" transform="translate(-64.10000610351562,14.277141200474325)" style="transform:matrix(1, 0, 0, 1, -64.1, 14.2771);fill:rgb(255, 255, 255);animation-play-state:paused" ></path></g></g></g></g></svg>